<?xml version="1.0" encoding="UTF-8" standalone="no"?>
<svg
   xmlns:dc="http://purl.org/dc/elements/1.1/"
   xmlns:cc="http://creativecommons.org/ns#"
   xmlns:rdf="http://www.w3.org/1999/02/22-rdf-syntax-ns#"
   xmlns:svg="http://www.w3.org/2000/svg"
   xmlns="http://www.w3.org/2000/svg"
   xmlns:xlink="http://www.w3.org/1999/xlink"
   xmlns:sodipodi="http://sodipodi.sourceforge.net/DTD/sodipodi-0.dtd"
   xmlns:inkscape="http://www.inkscape.org/namespaces/inkscape"
   width="350mm"
   height="350mm"
   viewBox="0 0 350 350"
   version="1.1"
   id="svg56448"
   inkscape:version="1.0.2 (e86c8708, 2021-01-15)"
   sodipodi:docname="DogVECTOR.svg">
  <defs
     id="defs56442">
    <linearGradient
       inkscape:collect="always"
       xlink:href="#linearGradient4584"
       id="linearGradient14291"
       gradientUnits="userSpaceOnUse"
       gradientTransform="matrix(1.0648966,0,0,1.0067862,-180.41582,-3.951621)"
       x1="680.10052"
       y1="100.66172"
       x2="680.55841"
       y2="59.14352" />
    <linearGradient
       inkscape:collect="always"
       id="linearGradient4584">
      <stop
         style="stop-color:#e6ab6c;stop-opacity:1"
         offset="0"
         id="stop4580" />
      <stop
         style="stop-color:#f5cb91;stop-opacity:1"
         offset="1"
         id="stop4582" />
    </linearGradient>
    <linearGradient
       inkscape:collect="always"
       xlink:href="#linearGradient4584"
       id="linearGradient9418"
       x1="1157.9922"
       y1="132.61307"
       x2="1157.3762"
       y2="111.80351"
       gradientUnits="userSpaceOnUse"
       gradientTransform="translate(-589.78202,-55.483307)" />
    <linearGradient
       inkscape:collect="always"
       xlink:href="#linearGradient4584"
       id="linearGradient9426"
       x1="1109.6747"
       y1="133.73651"
       x2="1109.7523"
       y2="112.23331"
       gradientUnits="userSpaceOnUse"
       gradientTransform="translate(-588.02744,-55.263992)" />
    <filter
       inkscape:collect="always"
       style="color-interpolation-filters:sRGB"
       id="filter3989-4-0-5-8-3-5-3-47"
       x="-0.50187689"
       width="2.0037539"
       y="-7.8946338"
       height="16.789268">
      <feGaussianBlur
         inkscape:collect="always"
         stdDeviation="8.2571523"
         id="feGaussianBlur3991-3-6-3-8-8-3-5-95" />
    </filter>
  </defs>
  <sodipodi:namedview
     id="base"
     pagecolor="#ffffff"
     bordercolor="#666666"
     borderopacity="1.0"
     inkscape:pageopacity="0.0"
     inkscape:pageshadow="2"
     inkscape:zoom="0.1647639"
     inkscape:cx="1149.5263"
     inkscape:cy="531.91671"
     inkscape:document-units="mm"
     inkscape:current-layer="layer1"
     inkscape:document-rotation="0"
     showgrid="false"
     inkscape:window-width="1252"
     inkscape:window-height="678"
     inkscape:window-x="0"
     inkscape:window-y="25"
     inkscape:window-maximized="0" />
  <metadata
     id="metadata56445">
    <rdf:RDF>
      <cc:Work
         rdf:about="">
        <dc:format>image/svg+xml</dc:format>
        <dc:type
           rdf:resource="http://purl.org/dc/dcmitype/StillImage" />
        <dc:title></dc:title>
      </cc:Work>
    </rdf:RDF>
  </metadata>
  <g
     inkscape:label="Layer 1"
     inkscape:groupmode="layer"
     id="layer1">
    <g
       id="g33271"
       transform="matrix(5.3376654,0,0,5.3376654,-2723.0537,-250.95888)"
       style="display:inline">
      <path
         style="display:inline;fill:#e6ab6d;fill-opacity:1;stroke:#62391f;stroke-width:1.32292;stroke-linecap:butt;stroke-linejoin:miter;stroke-miterlimit:4;stroke-dasharray:none;stroke-opacity:1"
         d="m 544.53303,106.51442 c 1.3602,-2.99946 3.6538,1.47299 2.5222,3.79028 -0.1918,0.39285 -0.8204,0.57098 -1.1949,0.57098 -1.7796,0 -1.6888,-2.88056 -1.3273,-4.36126 z"
         id="path1521-8-1-4-6-7-0-5-1-5-9-9-8-9-0-1"
         sodipodi:nodetypes="cssc"
         inkscape:export-xdpi="96"
         inkscape:export-ydpi="96" />
      <path
         style="display:inline;fill:#e6ab6d;fill-opacity:1;stroke:#62391f;stroke-width:1.32292;stroke-linecap:butt;stroke-linejoin:miter;stroke-miterlimit:4;stroke-dasharray:none;stroke-opacity:1"
         d="m 542.05284,106.51441 c -1.3602,-2.99946 -3.6538,1.47299 -2.5223,3.79028 0.1918,0.39285 0.8205,0.57099 1.195,0.57099 1.7795,0 1.6888,-2.88056 1.3273,-4.36127 z"
         id="path1521-8-1-0-0-1-4-6-4-9-9-8-0-79-44"
         sodipodi:nodetypes="cssc"
         inkscape:export-xdpi="96"
         inkscape:export-ydpi="96" />
      <path
         id="path660-5-6-5-0"
         style="display:inline;opacity:0.997;fill:#e6ab6c;fill-opacity:1;stroke:#62391f;stroke-width:1.32292;stroke-linecap:round;stroke-miterlimit:4;stroke-dasharray:none;stroke-opacity:1"
         d="m 549.71416,100.97661 c 0,4.29218 -2.0021,6.81459 -6.2943,6.81459 -4.2922,0 -6.8258,-2.37096 -6.8258,-6.66314 0,-4.292171 2.1164,-7.923121 6.4086,-7.923121 4.2922,0 6.7115,3.47949 6.7115,7.771671 z"
         sodipodi:nodetypes="sssss" />
      <path
         style="display:inline;fill:url(#linearGradient14291);fill-opacity:1;stroke:#62391f;stroke-width:1.32292;stroke-linecap:butt;stroke-linejoin:miter;stroke-miterlimit:4;stroke-dasharray:none;stroke-opacity:1;paint-order:markers fill stroke;image-rendering:auto"
         d="m 526.88386,60.279297 c 2.8158,-1.68958 10.1879,-3.941589 17.455,-3.870139 6.4594,0.0636 12.8085,2.254309 16.2169,3.870139 4.8699,9.26292 10.1127,23.248369 5.304,32.129812 -4.8088,8.881441 -36.1412,8.620751 -43.6315,1.45862 -7.4904,-7.16213 -2.3378,-25.559552 4.6556,-33.588432 z"
         id="path3149-4-9-9-9-6-1-4-59"
         sodipodi:nodetypes="csczzc"
         inkscape:export-xdpi="96"
         inkscape:export-ydpi="96" />
      <path
         id="path3119-1-7-7-4-9-7-68"
         style="display:inline;fill:#312110;fill-opacity:1;stroke:#302010;stroke-width:0.736314;stroke-linecap:round;stroke-miterlimit:4;stroke-dasharray:none;stroke-opacity:1"
         d="m 550.45145,82.773786 c 0.046,1.278093 -2.025,3.600313 -5.0339,3.898113 -2.8879,0.28581 -5.7908,-2.22597 -5.8371,-3.504063 -0.046,-1.27808 2.3497,-2.40239 5.3516,-2.51121 3.0019,-0.10881 5.473,0.83907 5.5194,2.11716 z"
         sodipodi:nodetypes="sssss" />
      <path
         style="display:inline;fill:#e6ab6d;fill-opacity:1;stroke:#62391f;stroke-width:1.32292;stroke-linecap:butt;stroke-linejoin:miter;stroke-miterlimit:4;stroke-dasharray:none;stroke-opacity:1"
         d="m 549.04457,100.73207 c 0.5285,-4.589661 5.3325,1.19465 4.8198,4.76023 -0.087,0.60439 -0.8273,1.01132 -1.3118,1.10311 -2.3025,0.4361 -3.3678,-3.67363 -3.508,-5.86334 z"
         id="path1521-5-1-5-9-5-4-5-6-6-5-5-1"
         sodipodi:nodetypes="cssc"
         inkscape:export-xdpi="96"
         inkscape:export-ydpi="96" />
      <path
         style="display:inline;fill:#e6ab6d;fill-opacity:1;stroke:#62391f;stroke-width:1.32292;stroke-linecap:butt;stroke-linejoin:miter;stroke-miterlimit:4;stroke-dasharray:none;stroke-opacity:1"
         d="m 536.81323,100.16482 c -1.4441,-3.953189 -5.6898,2.91293 -4.4547,5.94888 0.2091,0.51469 1.1064,0.62628 1.6608,0.54209 2.6348,-0.40009 3.0478,-4.46978 2.7939,-6.49097 z"
         id="path1521-88-1-6-4-4-2-7-7-2-2-5-8-4"
         sodipodi:nodetypes="cssc"
         inkscape:export-xdpi="96"
         inkscape:export-ydpi="96" />
      <path
         style="display:inline;fill:url(#linearGradient9418);fill-opacity:1;stroke:#62391f;stroke-width:1.32292;stroke-linecap:round;stroke-linejoin:miter;stroke-miterlimit:4;stroke-dasharray:none;stroke-opacity:1"
         d="m 557.5487,57.086801 c 3.7765,0.34868 13.8146,3.16767 15.967,2.87424 0.94,5.13261 -0.2909,7.24778 -0.2909,7.24778 -3.1423,3.42805 -2.1641,5.80576 -2.1641,5.80576 -0.5714,6.28477 -3.7744,3.30398 -3.7744,3.30398 z"
         id="path4940-1-5-0-5-39"
         sodipodi:nodetypes="cccccc" />
      <path
         style="display:inline;fill:url(#linearGradient9426);fill-opacity:1;stroke:#62391f;stroke-width:1.32292;stroke-linecap:square;stroke-linejoin:miter;stroke-miterlimit:4;stroke-dasharray:none;stroke-opacity:1"
         d="m 529.61176,57.597178 c -3.7765,0.34868 -13.8146,3.167669 -15.967,2.874239 -0.94,5.13261 0.2909,7.24778 0.2909,7.24778 3.1423,3.42804 2.1641,5.80575 2.1641,5.80575 0.5714,6.284769 3.7743,3.303979 3.7743,3.303979 z"
         id="path14143-0-1"
         sodipodi:nodetypes="cccccc" />
      <path
         style="display:inline;fill:none;stroke:#dcb093;stroke-width:5.50885;stroke-linecap:butt;stroke-linejoin:miter;stroke-miterlimit:4;stroke-dasharray:none;stroke-opacity:1;filter:url(#filter3989-4-0-5-8-3-5-3-47)"
         d="m 655.56937,230.46813 c 9.21854,-3.85633 32.34367,-2.06017 39.48611,0.26274"
         id="path3511-9-8-5-8-7-6-1-45"
         sodipodi:nodetypes="cc"
         transform="matrix(0.268616,0,0,0.13148983,363.07364,49.939468)"
         inkscape:export-xdpi="96"
         inkscape:export-ydpi="96" />
    </g>
  </g>
</svg>
