<?xml version="1.0" encoding="UTF-8" standalone="no"?>
<svg
   xmlns:dc="http://purl.org/dc/elements/1.1/"
   xmlns:cc="http://creativecommons.org/ns#"
   xmlns:rdf="http://www.w3.org/1999/02/22-rdf-syntax-ns#"
   xmlns:svg="http://www.w3.org/2000/svg"
   xmlns="http://www.w3.org/2000/svg"
   xmlns:sodipodi="http://sodipodi.sourceforge.net/DTD/sodipodi-0.dtd"
   xmlns:inkscape="http://www.inkscape.org/namespaces/inkscape"
   width="1920"
   height="1080"
   viewBox="0 0 507.99999 285.75"
   version="1.1"
   id="svg710"
   inkscape:version="1.0.2 (e86c8708, 2021-01-15)"
   sodipodi:docname="JournalUI.svg">
  <defs
     id="defs704">
    <inkscape:perspective
       sodipodi:type="inkscape:persp3d"
       inkscape:vp_x="1.5797862 : 161.871 : 1"
       inkscape:vp_y="0 : 1000 : 0"
       inkscape:vp_z="548.75353 : 73.402976 : 1"
       inkscape:persp3d-origin="275.16666 : 105.83333 : 1"
       id="perspective738" />
    <clipPath
       clipPathUnits="userSpaceOnUse"
       id="clipPath1601">
      <path
         style="fill:none;stroke:#000000;stroke-width:0.264583px;stroke-linecap:butt;stroke-linejoin:miter;stroke-opacity:1"
         d="M -5.5292516,175.35627 C 188.78445,154.81905 513.43051,192.73391 550.5555,196.68338 c 37.12495,3.94947 18.16753,101.89621 18.16753,101.89621 l -590.050143,4.73935 z"
         id="path1603" />
    </clipPath>
  </defs>
  <sodipodi:namedview
     id="base"
     pagecolor="#ffffff"
     bordercolor="#666666"
     borderopacity="1.0"
     inkscape:pageopacity="0"
     inkscape:pageshadow="2"
     inkscape:zoom="0.46078343"
     inkscape:cx="661.86227"
     inkscape:cy="599.07727"
     inkscape:document-units="px"
     inkscape:current-layer="layer2"
     inkscape:document-rotation="0"
     showgrid="false"
     width="2080mm"
     units="px"
     showborder="true"
     borderlayer="true"
     inkscape:window-width="1252"
     inkscape:window-height="665"
     inkscape:window-x="8"
     inkscape:window-y="28"
     inkscape:window-maximized="0"
     inkscape:showpageshadow="false"
     inkscape:pagecheckerboard="true"
     inkscape:snap-global="false"
     inkscape:snap-bbox="false">
    <inkscape:grid
       type="xygrid"
       id="grid1227" />
  </sodipodi:namedview>
  <metadata
     id="metadata707">
    <rdf:RDF>
      <cc:Work
         rdf:about="">
        <dc:format>image/svg+xml</dc:format>
        <dc:type
           rdf:resource="http://purl.org/dc/dcmitype/StillImage" />
        <dc:title></dc:title>
      </cc:Work>
    </rdf:RDF>
  </metadata>
  <g
     inkscape:groupmode="layer"
     id="layer2"
     inkscape:label="Sky">
    <path
       id="rect1184-2"
       style="fill:#75f8ff;fill-opacity:1;stroke:#000000;stroke-width:3.08251;stroke-linejoin:round;stroke-miterlimit:4;stroke-dasharray:none;stroke-opacity:1;paint-order:stroke fill markers"
       d="m 444.50214,116.75071 h 57.65237 l -14.59372,14.58307 14.59372,14.60946 h -57.65237 z"
       sodipodi:nodetypes="cccccc"
       inkscape:export-xdpi="300"
       inkscape:export-ydpi="300" />
    <g
       id="g1649"
       transform="translate(1.9314774)">
      <path
         id="path1229"
         style="fill:#65ff75;fill-opacity:1;stroke:#000000;stroke-width:0.79375;stroke-linecap:butt;stroke-linejoin:miter;stroke-miterlimit:4;stroke-dasharray:none;stroke-opacity:1"
         d="m 460.95091,124.4201 -3.60445,1.9358 -1.80194,11.61531 3.60442,-1.9358 9.01083,1.9358 9.01134,-1.9358 3.60442,1.9358 -1.80248,-11.61531 -3.60442,-1.9358 -7.20886,1.9358 z" />
      <path
         style="fill:none;stroke:#000000;stroke-width:0.865832;stroke-linecap:butt;stroke-linejoin:miter;stroke-miterlimit:4;stroke-dasharray:1.73166, 0.865832;stroke-dashoffset:0;stroke-opacity:1"
         d="m 458.42615,135.33098 3.49215,-7.46703 4.07415,3.29427 3.68615,-1.75694 5.43221,5.49046 2.32808,-6.36894 2.13408,1.97658"
         id="path1306" />
    </g>
    <path
       id="rect1184-2-3-0"
       style="fill:#fdff75;fill-opacity:1;stroke:#000000;stroke-width:3.08251;stroke-linejoin:round;stroke-miterlimit:4;stroke-dasharray:none;stroke-opacity:1;paint-order:stroke fill markers"
       d="m 444.53171,39.349471 h 57.65237 l -14.59372,14.583078 14.59372,14.609453 h -57.65237 z"
       sodipodi:nodetypes="cccccc"
       inkscape:export-xdpi="300"
       inkscape:export-ydpi="300" />
    <path
       id="path1352-0"
       style="fill:#fdff75;fill-opacity:1;stroke:#000000;stroke-width:1.85208;stroke-linecap:butt;stroke-linejoin:miter;stroke-miterlimit:4;stroke-dasharray:none;stroke-dashoffset:0;stroke-opacity:1;paint-order:stroke fill markers"
       d="m 464.99164,47.112343 a 1.4769447,1.4769447 0 0 0 -1.46968,1.476912 1.4769447,1.4769447 0 0 0 1.47693,1.476915 1.4769447,1.4769447 0 0 0 0.17156,-0.0098 c -0.83802,1.158383 -1.50405,2.759554 -2.22517,4.82451 -1.41899,4.063127 2.44392,7.107579 7.10755,7.107577 5.72728,0 8.55813,-3.236656 7.10758,-7.107577 -0.71972,-1.920665 -1.36673,-3.583471 -2.29391,-4.817276 a 1.4769447,1.4769447 0 0 0 0.0884,0.0031 1.4769447,1.4769447 0 0 0 1.47691,-1.476912 1.4769447,1.4769447 0 0 0 -1.47691,-1.47743 1.4769447,1.4769447 0 0 0 -1.47693,1.47743 1.4769447,1.4769447 0 0 0 0.006,0.134358 c -0.88093,-0.593915 -1.98086,-0.932915 -3.43133,-0.950846 -1.5177,-0.01876 -2.65951,0.297164 -3.58375,0.955498 a 1.4769447,1.4769447 0 0 0 0.007,-0.139528 1.4769447,1.4769447 0 0 0 -1.4769,-1.476912 1.4769447,1.4769447 0 0 0 -0.007,0 z" />
    <path
       id="rect1184-2-3"
       style="fill:#c475ff;fill-opacity:1;stroke:#000000;stroke-width:3.08251;stroke-linejoin:round;stroke-miterlimit:4;stroke-dasharray:none;stroke-opacity:1;paint-order:stroke fill markers"
       d="m 444.50214,78.510409 h 57.65237 l -14.59372,14.583078 14.59372,14.609453 h -57.65237 z"
       sodipodi:nodetypes="cccccc"
       inkscape:export-xdpi="300"
       inkscape:export-ydpi="300" />
    <g
       id="g1645"
       transform="translate(0.89142299)">
      <path
         id="path1352"
         style="fill:#c475ff;fill-opacity:1;stroke:#000000;stroke-width:1.85208;stroke-linecap:butt;stroke-linejoin:miter;stroke-miterlimit:4;stroke-dasharray:none;stroke-dashoffset:0;stroke-opacity:1;paint-order:stroke fill markers"
         d="m 457.6587,85.510612 a 1.4769447,1.4769447 0 0 0 -1.46968,1.476912 1.4769447,1.4769447 0 0 0 1.47693,1.476915 1.4769447,1.4769447 0 0 0 0.17156,-0.0098 c -0.83802,1.158383 -1.50405,2.759554 -2.22517,4.82451 -1.41899,4.063127 2.44393,7.107581 7.10755,7.107581 5.72728,0 8.55814,-3.236661 7.10758,-7.107581 -0.71972,-1.920666 -1.36673,-3.583472 -2.29391,-4.817277 a 1.4769447,1.4769447 0 0 0 0.0884,0.0031 1.4769447,1.4769447 0 0 0 1.47691,-1.476912 1.4769447,1.4769447 0 0 0 -1.47691,-1.477431 1.4769447,1.4769447 0 0 0 -1.47693,1.477431 1.4769447,1.4769447 0 0 0 0.006,0.134358 c -0.88093,-0.593916 -1.98085,-0.932916 -3.43133,-0.950846 -1.5177,-0.01876 -2.65951,0.297164 -3.58375,0.955497 a 1.4769447,1.4769447 0 0 0 0.007,-0.139528 1.4769447,1.4769447 0 0 0 -1.4769,-1.476912 1.4769447,1.4769447 0 0 0 -0.007,0 z" />
      <path
         style="fill:none;stroke:#000000;stroke-width:0.79375;stroke-linecap:butt;stroke-linejoin:miter;stroke-miterlimit:4;stroke-dasharray:none;stroke-opacity:1"
         d="m 474.9942,86.023609 h 9.0031"
         id="path1379" />
      <path
         style="fill:none;stroke:#000000;stroke-width:0.79375;stroke-linecap:butt;stroke-linejoin:miter;stroke-miterlimit:4;stroke-dasharray:none;stroke-opacity:1"
         d="m 474.9942,92.352146 h 7.64325"
         id="path1379-1" />
      <path
         style="fill:none;stroke:#000000;stroke-width:0.79375;stroke-linecap:butt;stroke-linejoin:miter;stroke-miterlimit:4;stroke-dasharray:none;stroke-opacity:1"
         d="m 474.9942,98.732982 h 9.0031"
         id="path1379-1-4" />
      <circle
         style="fill:#000000;fill-opacity:1;stroke:none;stroke-width:0.79375;stroke-linecap:round;stroke-linejoin:miter;stroke-miterlimit:4;stroke-dasharray:none;stroke-dashoffset:0;stroke-opacity:1;paint-order:stroke fill markers"
         id="path1427"
         cx="473.32416"
         cy="86.023605"
         r="1.0983399" />
      <circle
         style="fill:#000000;fill-opacity:1;stroke:none;stroke-width:0.79375;stroke-linecap:round;stroke-linejoin:miter;stroke-miterlimit:4;stroke-dasharray:none;stroke-dashoffset:0;stroke-opacity:1;paint-order:stroke fill markers"
         id="path1427-0"
         cx="473.32416"
         cy="92.352142"
         r="1.0983399" />
      <circle
         style="fill:#000000;fill-opacity:1;stroke:none;stroke-width:0.79375;stroke-linecap:round;stroke-linejoin:miter;stroke-miterlimit:4;stroke-dasharray:none;stroke-dashoffset:0;stroke-opacity:1;paint-order:stroke fill markers"
         id="path1427-0-8"
         cx="473.32416"
         cy="98.732979"
         r="1.0983399" />
    </g>
    <rect
       style="fill:#ff7575;fill-opacity:1;stroke:#000000;stroke-width:3.96875;stroke-linecap:butt;stroke-linejoin:miter;stroke-miterlimit:4;stroke-dasharray:none;stroke-dashoffset:0;stroke-opacity:1;paint-order:stroke fill markers"
       id="rect1330"
       width="373.9743"
       height="231.12883"
       x="29.092236"
       y="23.077888"
       ry="13.65318"
       rx="9.7522717"
       inkscape:export-xdpi="300"
       inkscape:export-ydpi="300" />
    <path
       id="rect1184"
       style="fill:#ff7575;fill-opacity:1;stroke:#000000;stroke-width:3.08251;stroke-linejoin:round;stroke-miterlimit:4;stroke-dasharray:none;stroke-opacity:1;paint-order:stroke fill markers"
       d="m 443.67138,154.16024 h 57.65237 l -14.59372,14.58307 14.59372,14.60946 h -57.65237 z"
       sodipodi:nodetypes="cccccc"
       inkscape:export-xdpi="300"
       inkscape:export-ydpi="300" />
    <g
       id="g1653"
       transform="translate(2.0556707)">
      <path
         id="path948"
         style="fill:#aeaeae;fill-opacity:1;stroke:#0c0c0c;stroke-width:1.32292;stroke-linejoin:round;stroke-miterlimit:4;stroke-dasharray:none;stroke-opacity:1;paint-order:stroke fill markers"
         d="m 466.93715,160.28204 c -0.67207,0 -1.21315,0.541 -1.21315,1.21307 v 0.97255 a 7.6544301,7.6544301 0 0 0 -1.23523,0.51897 l -0.56979,-0.62789 c -0.45162,-0.4977 -1.21589,-0.53482 -1.71358,-0.0832 l -1.6626,1.50867 c -0.4977,0.45164 -0.53474,1.21589 -0.0831,1.71359 l 0.75543,0.83249 a 7.6544301,7.6544301 0 0 0 -0.44597,1.09466 l -0.99287,0.004 c -0.67206,0.003 -1.21108,0.54562 -1.20853,1.21767 l 0.009,2.24502 c 0.002,0.67206 0.5457,1.21107 1.21776,1.20852 l 0.9774,-0.004 a 7.6544301,7.6544301 0 0 0 0.69353,1.54664 l -0.68309,0.75274 c -0.45162,0.49772 -0.41459,1.26196 0.0831,1.7136 l 1.66259,1.50868 c 0.4977,0.45163 1.26196,0.41451 1.71358,-0.0832 l 0.71036,-0.78279 a 7.6544301,7.6544301 0 0 0 0.77251,0.2944 v 0.94926 c 0,0.67205 0.54108,1.21313 1.21315,1.21313 h 2.245 c 0.67207,0 1.21315,-0.54107 1.21315,-1.21313 v -0.94917 a 7.6544301,7.6544301 0 0 0 1.01107,-0.40544 l 0.6648,0.7326 c 0.45163,0.49772 1.21588,0.53483 1.71358,0.0832 l 1.66252,-1.50869 c 0.4977,-0.45162 0.53481,-1.21589 0.0832,-1.71359 l -0.74572,-0.82178 a 7.6544301,7.6544301 0 0 0 0.56308,-1.31631 l 0.92886,0.004 c 0.67206,0.003 1.2152,-0.53647 1.21775,-1.20853 l 0.009,-2.24502 c 0.003,-0.67205 -0.53647,-1.21512 -1.20855,-1.21767 l -0.94413,-0.004 a 7.6544301,7.6544301 0 0 0 -0.57352,-1.33841 l 0.75373,-0.83062 c 0.45163,-0.4977 0.4145,-1.26196 -0.0832,-1.71357 l -1.66252,-1.50869 c -0.4977,-0.45162 -1.26196,-0.41452 -1.71359,0.0832 l -0.67952,0.7488 a 7.6544301,7.6544301 0 0 0 -0.99634,-0.39823 v -0.97255 c 0,-0.67207 -0.54108,-1.21307 -1.21315,-1.21307 z" />
      <circle
         style="fill:#ff7575;fill-opacity:1;stroke:#000000;stroke-width:1.32292;stroke-linejoin:round;stroke-miterlimit:4;stroke-dasharray:none;stroke-opacity:1;paint-order:stroke fill markers"
         id="path1182"
         cx="468.03537"
         cy="169.74527"
         r="2.9142289" />
    </g>
    <path
       id="rect1330-0"
       style="fill:#ffffff;fill-opacity:1;stroke:#000000;stroke-width:3.79336;stroke-linecap:butt;stroke-linejoin:miter;stroke-miterlimit:4;stroke-dasharray:none;stroke-dashoffset:0;stroke-opacity:1;paint-order:stroke fill markers"
       d="m 46.207078,29.5366 c -5.18697,0 -9.36273,5.79443 -9.36273,12.99197 v 193.95147 c 0,7.19754 4.17576,12.99197 9.36273,12.99197 H 386.51963 c 5.18697,0 9.36276,-5.79443 9.36276,-12.99197 V 42.52857 c 0,-7.19754 -4.17579,-12.99197 -9.36276,-12.99197 h -70.80549 c 0.0571,1.28635 0.0259,2.7327 0.0259,4.28604 v 14.88953 c 0,5.5315 -3.88471,9.98441 -8.71058,9.98441 H 125.69784 c -4.82587,0 -8.71109,-4.45291 -8.71109,-9.98441 V 33.82264 c 0,-1.21817 -0.0365,-2.79015 0.0765,-4.28604 z"
       inkscape:export-xdpi="300"
       inkscape:export-ydpi="300" />
    <rect
       style="fill:#ffffff;fill-opacity:1;stroke:#000000;stroke-width:2.64583;stroke-linecap:round;stroke-linejoin:miter;stroke-miterlimit:4;stroke-dasharray:none;stroke-dashoffset:0;stroke-opacity:1;paint-order:stroke fill markers"
       id="rect1687"
       width="37.597721"
       height="37.597721"
       x="-32.252819"
       y="109.53569"
       rx="6.8812575"
       ry="6.7627521"
       inkscape:export-xdpi="300"
       inkscape:export-ydpi="300" />
  </g>
  <g
     inkscape:label="Foreground"
     inkscape:groupmode="layer"
     id="layer1" />
</svg>
